<?xml version="1.0" encoding="utf-8"?>
<!-- Generator: Adobe Illustrator 15.1.0, SVG Export Plug-In . SVG Version: 6.00 Build 0)  -->
<!DOCTYPE svg PUBLIC "-//W3C//DTD SVG 1.1//EN" "http://www.w3.org/Graphics/SVG/1.1/DTD/svg11.dtd">
<svg version="1.1" id="Layer_1" xmlns:rdf="http://www.w3.org/1999/02/22-rdf-syntax-ns#" xmlns:svg="http://www.w3.org/2000/svg"
	 xmlns="http://www.w3.org/2000/svg" xmlns:xlink="http://www.w3.org/1999/xlink" x="0px" y="0px" width="320.9px"
	 height="120.324px" viewBox="0 0 320.9 120.324" enable-background="new 0 0 320.9 120.324" xml:space="preserve">
<path id="e" fill="#E53238" d="M38.866,26.309C17.721,26.309,0.1,35.279,0.1,62.345c0,21.442,11.849,34.944,39.312,34.944
	c32.326,0,34.398-21.294,34.398-21.294H58.147c0,0-3.358,11.466-19.69,11.466c-13.302,0-22.869-8.986-22.869-21.58h59.861v-7.904
	C75.449,45.517,67.539,26.309,38.866,26.309z M38.32,36.41c12.662,0,21.294,7.757,21.294,19.383H15.934
	C15.934,43.45,27.201,36.41,38.32,36.41z"/>
<path id="b" fill="#0064D2" d="M82.438,0.1v83.597c0,4.745-0.338,11.408-0.338,11.408h14.94c0,0,0.536-4.785,0.536-9.159
	c0,0,7.381,11.548,27.451,11.548c21.135,0,35.49-14.674,35.49-35.695c0-19.557-13.187-35.286-35.456-35.286
	c-20.854,0-27.335,11.261-27.335,11.261V0.1H82.438z M121.204,36.853c14.352,0,23.479,10.652,23.479,24.946
	c0,15.328-10.541,25.355-23.376,25.355c-15.318,0-23.581-11.961-23.581-25.219C97.726,49.581,105.141,36.853,121.204,36.853z"/>
<path id="a" fill="#F5AF02" d="M204.645,26.309c-31.812,0-33.852,17.418-33.852,20.202h15.834c0,0,0.83-10.169,16.926-10.169
	c10.46,0,18.564,4.788,18.564,13.991v3.276h-18.564c-24.645,0-37.674,7.21-37.674,21.841c0,14.398,12.038,22.232,28.307,22.232
	c22.172,0,29.314-12.251,29.314-12.251c0,4.873,0.375,9.675,0.375,9.675h14.076c0,0-0.546-5.952-0.546-9.76V52.432
	C237.405,30.85,219.998,26.309,204.645,26.309z M222.117,63.437v4.368c0,5.697-3.516,19.861-24.212,19.861
	c-11.333,0-16.192-5.656-16.192-12.217C181.713,63.514,198.076,63.437,222.117,63.437z"/>
<path id="y" fill="#86B817" d="M235.879,29.041h17.813l25.565,51.218l25.506-51.218H320.9l-46.459,91.184h-16.927l13.406-25.419
	L235.879,29.041z"/>
</svg>
