<?xml version="1.0" encoding="utf-8"?>
<!-- Generator: Adobe Illustrator 15.1.0, SVG Export Plug-In . SVG Version: 6.00 Build 0)  -->
<!DOCTYPE svg PUBLIC "-//W3C//DTD SVG 1.1//EN" "http://www.w3.org/Graphics/SVG/1.1/DTD/svg11.dtd">
<svg version="1.1"
	 id="Layer_1" xmlns:cc="http://creativecommons.org/ns#" xmlns:dc="http://purl.org/dc/elements/1.1/" xmlns:rdf="http://www.w3.org/1999/02/22-rdf-syntax-ns#"
	 xmlns="http://www.w3.org/2000/svg" xmlns:xlink="http://www.w3.org/1999/xlink" x="0px" y="0px" width="300px" height="79.078px"
	 viewBox="0 0 300 79.078" enable-background="new 0 0 300 79.078" xml:space="preserve">
<path fill="#009CDE" d="M218.514,27.982c-0.88,5.781-5.295,5.781-9.566,5.781h-2.431l1.705-10.795
	c0.103-0.651,0.665-1.132,1.325-1.132h1.115c2.907,0,5.652,0,7.069,1.655C218.578,24.483,218.834,25.952,218.514,27.982
	 M216.655,12.896h-16.106c-1.104,0-2.04,0.802-2.213,1.891l-6.512,41.302c-0.129,0.814,0.502,1.552,1.324,1.552h8.266
	c0.771,0,1.427-0.561,1.547-1.321l1.849-11.711c0.171-1.088,1.108-1.89,2.21-1.89h5.096c10.61,0,16.734-5.134,18.334-15.312
	c0.721-4.448,0.029-7.945-2.054-10.395C226.104,14.321,222.045,12.896,216.655,12.896"/>
<path fill="#003087" d="M103.629,27.982c-0.881,5.781-5.296,5.781-9.567,5.781h-2.43l1.705-10.795
	c0.102-0.651,0.665-1.132,1.325-1.132h1.115c2.908,0,5.653,0,7.069,1.655C103.693,24.483,103.949,25.952,103.629,27.982
	 M101.771,12.896H85.663c-1.103,0-2.04,0.802-2.212,1.891l-6.513,41.302c-0.129,0.814,0.5,1.552,1.325,1.552h7.692
	c1.101,0,2.037-0.802,2.209-1.888l1.759-11.145c0.17-1.088,1.108-1.89,2.209-1.89h5.097c10.61,0,16.734-5.134,18.333-15.312
	c0.721-4.448,0.029-7.945-2.054-10.395C111.22,14.321,107.159,12.896,101.771,12.896"/>
<path fill="#003087" d="M139.165,42.809c-0.746,4.407-4.243,7.366-8.706,7.366c-2.236,0-4.029-0.721-5.18-2.083
	c-1.14-1.35-1.569-3.274-1.208-5.416c0.693-4.369,4.249-7.422,8.643-7.422c2.191,0,3.969,0.727,5.142,2.102
	C139.038,38.74,139.504,40.676,139.165,42.809 M149.914,27.796h-7.713c-0.66,0-1.224,0.479-1.327,1.134l-0.339,2.156l-0.537-0.781
	c-1.672-2.424-5.396-3.235-9.113-3.235c-8.521,0-15.8,6.459-17.216,15.516c-0.737,4.519,0.31,8.836,2.873,11.85
	c2.353,2.769,5.711,3.921,9.713,3.921c6.87,0,10.679-4.411,10.679-4.411l-0.345,2.144c-0.129,0.813,0.5,1.551,1.326,1.551h6.945
	c1.103,0,2.039-0.799,2.212-1.888l4.17-26.403C151.37,28.533,150.738,27.796,149.914,27.796"/>
<path fill="#009CDE" d="M254.051,42.809c-0.746,4.407-4.243,7.366-8.706,7.366c-2.237,0-4.029-0.721-5.18-2.083
	c-1.142-1.35-1.569-3.274-1.208-5.416c0.693-4.369,4.248-7.422,8.643-7.422c2.191,0,3.969,0.727,5.143,2.102
	C253.924,38.74,254.389,40.676,254.051,42.809 M264.799,27.796h-7.713c-0.66,0-1.223,0.479-1.326,1.134l-0.339,2.156l-0.54-0.781
	c-1.67-2.424-5.393-3.235-9.11-3.235c-8.521,0-15.8,6.459-17.216,15.516c-0.738,4.519,0.309,8.836,2.871,11.85
	c2.354,2.769,5.711,3.921,9.713,3.921c6.871,0,10.68-4.411,10.68-4.411l-0.346,2.144c-0.129,0.813,0.501,1.551,1.328,1.551h6.943
	c1.104,0,2.04-0.799,2.213-1.888l4.17-26.403C266.256,28.533,265.624,27.796,264.799,27.796"/>
<path fill="#003087" d="M190.994,27.796h-7.753c-0.741,0-1.435,0.368-1.851,0.982l-10.695,15.75l-4.531-15.135
	c-0.285-0.947-1.156-1.598-2.146-1.598h-7.619c-0.92,0-1.568,0.906-1.271,1.776l8.536,25.058l-8.029,11.329
	c-0.629,0.889,0.006,2.118,1.097,2.118h7.744c0.733,0,1.421-0.359,1.84-0.962l25.78-37.211
	C192.713,29.014,192.078,27.796,190.994,27.796"/>
<path fill="#009CDE" d="M273.891,14.031l-6.611,42.058c-0.129,0.814,0.501,1.552,1.326,1.552h6.648c1.102,0,2.04-0.802,2.211-1.89
	l6.518-41.303c0.129-0.814-0.5-1.552-1.326-1.552h-7.439C274.555,12.897,273.992,13.377,273.891,14.031"/>
<path fill="#003087" d="M56.172,7.661C52.695,3.698,46.411,2,38.372,2H15.04c-1.645,0-3.042,1.196-3.3,2.818L2.025,66.433
	c-0.193,1.215,0.747,2.315,1.979,2.315h14.404l3.618-22.945l-0.112,0.719c0.258-1.622,1.645-2.818,3.288-2.818h6.845
	c13.446,0,23.976-5.462,27.051-21.262c0.091-0.468,0.17-0.922,0.239-1.367C60.253,15.235,59.331,11.26,56.172,7.661"/>
<path fill="#009CDE" d="M57.266,20.149l-1.422,0.406c-0.071,0.446-1.049,1.673-1.141,2.141C51.628,38.493,38.447,37.289,25,37.289
	l-3.094,3c-1.643,0-2.245,2.972-2.5,4.594l-0.997,23.863l-0.995,6.306c-0.168,1.063,0.654,2.026,1.73,2.026h12.143
	c1.437,0,2.66-1.046,2.885-2.465l0.118-0.619l2.289-14.504l0.147-0.802c0.224-1.418,1.448-2.465,2.884-2.465h1.817
	c11.763,0,20.973-4.778,23.665-18.6c1.124-5.775,0.542-10.598-2.43-13.984c-0.901-1.026-2.021-1.873-3.325-2.564"/>
</svg>
